<?xml version="1.0" encoding="utf-8"?>
<!-- Generator: Adobe Illustrator 24.3.0, SVG Export Plug-In . SVG Version: 6.00 Build 0)  -->
<svg version="1.1" id="圖層_1" xmlns="http://www.w3.org/2000/svg" xmlns:xlink="http://www.w3.org/1999/xlink" x="0px" y="0px"
	 viewBox="0 0 34 32.5" style="enable-background:new 0 0 34 32.5;" xml:space="preserve">
<style type="text/css">
	.st0{fill:none;stroke:#E84C2E;stroke-width:2;}
	.st1{fill:#E84C2E;}
</style>
<g>
	<path class="st0" d="M17,3.3l2.9,8.8c0.3,0.8,1,1.4,1.9,1.4H31L23.5,19c-0.7,0.5-1,1.4-0.7,2.2l2.9,8.8l-7.5-5.5
		c-0.7-0.5-1.7-0.5-2.4,0L8.3,30l2.9-8.8c0.3-0.8,0-1.7-0.7-2.2L3,13.5h9.3c0.9,0,1.6-0.6,1.9-1.4L17,3.3z"/>
	<g>
		<path class="st1" d="M14.1,12.2c-0.3,0.8-1,1.4-1.9,1.4H3l7.5,5.5c0.7,0.5,1,1.4,0.7,2.2l-2.9,8.8l7.5-5.5
			c0.4-0.3,0.8-0.4,1.2-0.4V3.3L14.1,12.2z"/>
	</g>
</g>
</svg>
